<mxfile host="app.diagrams.net" modified="2021-01-14T18:12:37.141Z" agent="5.0 (X11; Linux x86_64) AppleWebKit/537.36 (KHTML, like Gecko) Chrome/87.0.4280.88 Safari/537.36" etag="Y1zcNlzZIrZ1qZtBisSp" version="14.0.0" type="github" pages="2">
  <diagram id="R2lEEEUBdFMjLlhIrx00" name="ER">
    <mxGraphModel dx="801" dy="433" grid="1" gridSize="10" guides="1" tooltips="1" connect="1" arrows="1" fold="1" page="1" pageScale="1" pageWidth="827" pageHeight="1169" math="0" shadow="0" extFonts="Permanent Marker^https://fonts.googleapis.com/css?family=Permanent+Marker">
      <root>
        <mxCell id="0" />
        <mxCell id="1" parent="0" />
        <mxCell id="5EuRPj-aI9CK-kgrltqV-1" value="Ledare" style="whiteSpace=wrap;html=1;align=center;" vertex="1" parent="1">
          <mxGeometry x="60" y="100" width="100" height="40" as="geometry" />
        </mxCell>
        <mxCell id="5EuRPj-aI9CK-kgrltqV-2" value="Medlem" style="whiteSpace=wrap;html=1;align=center;" vertex="1" parent="1">
          <mxGeometry x="60" y="180" width="100" height="40" as="geometry" />
        </mxCell>
        <mxCell id="5EuRPj-aI9CK-kgrltqV-3" value="Pass" style="whiteSpace=wrap;html=1;align=center;" vertex="1" parent="1">
          <mxGeometry x="360" y="140" width="100" height="40" as="geometry" />
        </mxCell>
        <mxCell id="5EuRPj-aI9CK-kgrltqV-9" value="" style="edgeStyle=none;shape=link;rounded=0;orthogonalLoop=1;jettySize=auto;html=1;exitX=1;exitY=0.5;exitDx=0;exitDy=0;entryX=0;entryY=0.25;entryDx=0;entryDy=0;" edge="1" parent="1" source="5EuRPj-aI9CK-kgrltqV-4" target="5EuRPj-aI9CK-kgrltqV-3">
          <mxGeometry relative="1" as="geometry" />
        </mxCell>
        <mxCell id="5EuRPj-aI9CK-kgrltqV-4" value="Leder" style="shape=rhombus;perimeter=rhombusPerimeter;whiteSpace=wrap;html=1;align=center;" vertex="1" parent="1">
          <mxGeometry x="200" y="90" width="120" height="60" as="geometry" />
        </mxCell>
        <mxCell id="5EuRPj-aI9CK-kgrltqV-5" value="Deltar" style="shape=rhombus;perimeter=rhombusPerimeter;whiteSpace=wrap;html=1;align=center;" vertex="1" parent="1">
          <mxGeometry x="200" y="170" width="120" height="60" as="geometry" />
        </mxCell>
        <mxCell id="5EuRPj-aI9CK-kgrltqV-6" value="" style="endArrow=none;html=1;rounded=0;entryX=0;entryY=0.5;entryDx=0;entryDy=0;" edge="1" parent="1" target="5EuRPj-aI9CK-kgrltqV-4">
          <mxGeometry relative="1" as="geometry">
            <mxPoint x="160" y="119.5" as="sourcePoint" />
            <mxPoint x="320" y="119.5" as="targetPoint" />
          </mxGeometry>
        </mxCell>
        <mxCell id="5EuRPj-aI9CK-kgrltqV-7" value="" style="endArrow=none;html=1;rounded=0;exitX=1;exitY=0.5;exitDx=0;exitDy=0;" edge="1" parent="1" source="5EuRPj-aI9CK-kgrltqV-2">
          <mxGeometry relative="1" as="geometry">
            <mxPoint x="330" y="230" as="sourcePoint" />
            <mxPoint x="200" y="200" as="targetPoint" />
          </mxGeometry>
        </mxCell>
        <mxCell id="5EuRPj-aI9CK-kgrltqV-8" value="" style="endArrow=none;html=1;rounded=0;exitX=1;exitY=0.5;exitDx=0;exitDy=0;entryX=0;entryY=0.75;entryDx=0;entryDy=0;" edge="1" parent="1" source="5EuRPj-aI9CK-kgrltqV-5" target="5EuRPj-aI9CK-kgrltqV-3">
          <mxGeometry relative="1" as="geometry">
            <mxPoint x="330" y="230" as="sourcePoint" />
            <mxPoint x="490" y="230" as="targetPoint" />
          </mxGeometry>
        </mxCell>
        <mxCell id="5EuRPj-aI9CK-kgrltqV-10" value="&lt;font style=&quot;font-size: 13px&quot;&gt;&lt;b style=&quot;font-size: 13px&quot;&gt;1&lt;/b&gt;&lt;/font&gt;" style="text;html=1;resizable=0;autosize=1;align=center;verticalAlign=middle;points=[];fillColor=none;strokeColor=none;rounded=0;fontSize=13;" vertex="1" parent="1">
          <mxGeometry x="190" y="97" width="20" height="20" as="geometry" />
        </mxCell>
        <mxCell id="5EuRPj-aI9CK-kgrltqV-11" value="&lt;font style=&quot;font-size: 13px&quot;&gt;&lt;b style=&quot;font-size: 13px&quot;&gt;N&lt;/b&gt;&lt;/font&gt;" style="text;html=1;resizable=0;autosize=1;align=center;verticalAlign=middle;points=[];fillColor=none;strokeColor=none;rounded=0;fontSize=13;" vertex="1" parent="1">
          <mxGeometry x="320" y="97" width="20" height="20" as="geometry" />
        </mxCell>
        <mxCell id="5EuRPj-aI9CK-kgrltqV-12" value="&lt;font style=&quot;font-size: 13px&quot;&gt;&lt;b style=&quot;font-size: 13px&quot;&gt;N&lt;/b&gt;&lt;/font&gt;" style="text;html=1;resizable=0;autosize=1;align=center;verticalAlign=middle;points=[];fillColor=none;strokeColor=none;rounded=0;fontSize=13;" vertex="1" parent="1">
          <mxGeometry x="190" y="205" width="20" height="20" as="geometry" />
        </mxCell>
        <mxCell id="5EuRPj-aI9CK-kgrltqV-13" value="&lt;font style=&quot;font-size: 13px&quot;&gt;&lt;b style=&quot;font-size: 13px&quot;&gt;M&lt;/b&gt;&lt;/font&gt;" style="text;html=1;resizable=0;autosize=1;align=center;verticalAlign=middle;points=[];fillColor=none;strokeColor=none;rounded=0;fontSize=13;" vertex="1" parent="1">
          <mxGeometry x="305" y="205" width="30" height="20" as="geometry" />
        </mxCell>
        <mxCell id="5EuRPj-aI9CK-kgrltqV-14" value="Nummer" style="ellipse;whiteSpace=wrap;html=1;align=center;fontStyle=4;" vertex="1" parent="1">
          <mxGeometry x="10" y="20" width="100" height="40" as="geometry" />
        </mxCell>
        <mxCell id="5EuRPj-aI9CK-kgrltqV-15" value="Nummer" style="ellipse;whiteSpace=wrap;html=1;align=center;fontStyle=4;" vertex="1" parent="1">
          <mxGeometry x="10" y="240" width="100" height="40" as="geometry" />
        </mxCell>
        <mxCell id="5EuRPj-aI9CK-kgrltqV-16" value="Namn" style="ellipse;whiteSpace=wrap;html=1;align=center;" vertex="1" parent="1">
          <mxGeometry x="110" y="10" width="100" height="40" as="geometry" />
        </mxCell>
        <mxCell id="5EuRPj-aI9CK-kgrltqV-17" value="Namn" style="ellipse;whiteSpace=wrap;html=1;align=center;" vertex="1" parent="1">
          <mxGeometry x="70" y="310" width="100" height="40" as="geometry" />
        </mxCell>
        <mxCell id="5EuRPj-aI9CK-kgrltqV-18" value="" style="endArrow=none;html=1;rounded=0;exitX=0.5;exitY=1;exitDx=0;exitDy=0;entryX=0.25;entryY=0;entryDx=0;entryDy=0;" edge="1" parent="1" source="5EuRPj-aI9CK-kgrltqV-14" target="5EuRPj-aI9CK-kgrltqV-1">
          <mxGeometry relative="1" as="geometry">
            <mxPoint x="330" y="230" as="sourcePoint" />
            <mxPoint x="490" y="230" as="targetPoint" />
          </mxGeometry>
        </mxCell>
        <mxCell id="5EuRPj-aI9CK-kgrltqV-19" value="" style="endArrow=none;html=1;rounded=0;exitX=0.5;exitY=0;exitDx=0;exitDy=0;entryX=0.3;entryY=0.95;entryDx=0;entryDy=0;entryPerimeter=0;" edge="1" parent="1" source="5EuRPj-aI9CK-kgrltqV-1" target="5EuRPj-aI9CK-kgrltqV-16">
          <mxGeometry relative="1" as="geometry">
            <mxPoint x="330" y="230" as="sourcePoint" />
            <mxPoint x="168" y="60" as="targetPoint" />
          </mxGeometry>
        </mxCell>
        <mxCell id="5EuRPj-aI9CK-kgrltqV-20" value="" style="endArrow=none;html=1;rounded=0;exitX=0.5;exitY=0;exitDx=0;exitDy=0;entryX=0.25;entryY=1;entryDx=0;entryDy=0;" edge="1" parent="1" source="5EuRPj-aI9CK-kgrltqV-15" target="5EuRPj-aI9CK-kgrltqV-2">
          <mxGeometry relative="1" as="geometry">
            <mxPoint x="330" y="230" as="sourcePoint" />
            <mxPoint x="490" y="230" as="targetPoint" />
          </mxGeometry>
        </mxCell>
        <mxCell id="5EuRPj-aI9CK-kgrltqV-21" value="" style="endArrow=none;html=1;rounded=0;exitX=0.5;exitY=1;exitDx=0;exitDy=0;entryX=0.5;entryY=0;entryDx=0;entryDy=0;" edge="1" parent="1" source="5EuRPj-aI9CK-kgrltqV-2" target="5EuRPj-aI9CK-kgrltqV-17">
          <mxGeometry relative="1" as="geometry">
            <mxPoint x="330" y="230" as="sourcePoint" />
            <mxPoint x="180" y="260" as="targetPoint" />
          </mxGeometry>
        </mxCell>
        <mxCell id="5EuRPj-aI9CK-kgrltqV-23" value="&lt;u&gt;Typ&lt;/u&gt;" style="ellipse;whiteSpace=wrap;html=1;align=center;" vertex="1" parent="1">
          <mxGeometry x="350" y="30" width="100" height="40" as="geometry" />
        </mxCell>
        <mxCell id="5EuRPj-aI9CK-kgrltqV-24" value="&lt;u&gt;Datum&lt;/u&gt;" style="ellipse;whiteSpace=wrap;html=1;align=center;" vertex="1" parent="1">
          <mxGeometry x="450" y="60" width="100" height="40" as="geometry" />
        </mxCell>
        <mxCell id="5EuRPj-aI9CK-kgrltqV-25" value="&lt;u&gt;Tid&lt;/u&gt;" style="ellipse;whiteSpace=wrap;html=1;align=center;" vertex="1" parent="1">
          <mxGeometry x="490" y="110" width="100" height="40" as="geometry" />
        </mxCell>
        <mxCell id="5EuRPj-aI9CK-kgrltqV-26" value="Lokal" style="ellipse;whiteSpace=wrap;html=1;align=center;" vertex="1" parent="1">
          <mxGeometry x="490" y="170" width="100" height="40" as="geometry" />
        </mxCell>
        <mxCell id="5EuRPj-aI9CK-kgrltqV-27" value="Max deltagare" style="ellipse;whiteSpace=wrap;html=1;align=center;" vertex="1" parent="1">
          <mxGeometry x="460" y="230" width="100" height="40" as="geometry" />
        </mxCell>
        <mxCell id="5EuRPj-aI9CK-kgrltqV-28" value="Antal anmÃ¤lda" style="ellipse;whiteSpace=wrap;html=1;align=center;dashed=1;" vertex="1" parent="1">
          <mxGeometry x="270" y="250" width="100" height="40" as="geometry" />
        </mxCell>
        <mxCell id="5EuRPj-aI9CK-kgrltqV-29" value="Lediga platser" style="ellipse;whiteSpace=wrap;html=1;align=center;dashed=1;" vertex="1" parent="1">
          <mxGeometry x="370" y="270" width="100" height="40" as="geometry" />
        </mxCell>
        <mxCell id="5EuRPj-aI9CK-kgrltqV-30" value="" style="endArrow=none;html=1;rounded=0;exitX=0.5;exitY=0;exitDx=0;exitDy=0;entryX=0.25;entryY=1;entryDx=0;entryDy=0;" edge="1" parent="1" source="5EuRPj-aI9CK-kgrltqV-28" target="5EuRPj-aI9CK-kgrltqV-3">
          <mxGeometry relative="1" as="geometry">
            <mxPoint x="330" y="230" as="sourcePoint" />
            <mxPoint x="490" y="230" as="targetPoint" />
          </mxGeometry>
        </mxCell>
        <mxCell id="5EuRPj-aI9CK-kgrltqV-31" value="" style="endArrow=none;html=1;rounded=0;exitX=0.44;exitY=0;exitDx=0;exitDy=0;exitPerimeter=0;entryX=0.5;entryY=1;entryDx=0;entryDy=0;" edge="1" parent="1" source="5EuRPj-aI9CK-kgrltqV-29" target="5EuRPj-aI9CK-kgrltqV-3">
          <mxGeometry relative="1" as="geometry">
            <mxPoint x="330" y="230" as="sourcePoint" />
            <mxPoint x="490" y="230" as="targetPoint" />
          </mxGeometry>
        </mxCell>
        <mxCell id="5EuRPj-aI9CK-kgrltqV-32" value="" style="endArrow=none;html=1;rounded=0;exitX=0.75;exitY=1;exitDx=0;exitDy=0;entryX=0.33;entryY=0;entryDx=0;entryDy=0;entryPerimeter=0;" edge="1" parent="1" source="5EuRPj-aI9CK-kgrltqV-3" target="5EuRPj-aI9CK-kgrltqV-27">
          <mxGeometry relative="1" as="geometry">
            <mxPoint x="330" y="230" as="sourcePoint" />
            <mxPoint x="494" y="233" as="targetPoint" />
          </mxGeometry>
        </mxCell>
        <mxCell id="5EuRPj-aI9CK-kgrltqV-33" value="" style="endArrow=none;html=1;rounded=0;entryX=0;entryY=0;entryDx=0;entryDy=0;exitX=1;exitY=0.75;exitDx=0;exitDy=0;" edge="1" parent="1" source="5EuRPj-aI9CK-kgrltqV-3" target="5EuRPj-aI9CK-kgrltqV-26">
          <mxGeometry relative="1" as="geometry">
            <mxPoint x="330" y="230" as="sourcePoint" />
            <mxPoint x="490" y="230" as="targetPoint" />
          </mxGeometry>
        </mxCell>
        <mxCell id="5EuRPj-aI9CK-kgrltqV-34" value="" style="endArrow=none;html=1;rounded=0;entryX=0;entryY=1;entryDx=0;entryDy=0;exitX=1;exitY=0.25;exitDx=0;exitDy=0;" edge="1" parent="1" source="5EuRPj-aI9CK-kgrltqV-3" target="5EuRPj-aI9CK-kgrltqV-25">
          <mxGeometry relative="1" as="geometry">
            <mxPoint x="330" y="230" as="sourcePoint" />
            <mxPoint x="490" y="230" as="targetPoint" />
          </mxGeometry>
        </mxCell>
        <mxCell id="5EuRPj-aI9CK-kgrltqV-35" value="" style="endArrow=none;html=1;rounded=0;entryX=0.5;entryY=1;entryDx=0;entryDy=0;exitX=0.5;exitY=0;exitDx=0;exitDy=0;" edge="1" parent="1" source="5EuRPj-aI9CK-kgrltqV-3" target="5EuRPj-aI9CK-kgrltqV-23">
          <mxGeometry relative="1" as="geometry">
            <mxPoint x="330" y="230" as="sourcePoint" />
            <mxPoint x="490" y="230" as="targetPoint" />
          </mxGeometry>
        </mxCell>
        <mxCell id="5EuRPj-aI9CK-kgrltqV-36" value="" style="endArrow=none;html=1;rounded=0;entryX=0;entryY=1;entryDx=0;entryDy=0;" edge="1" parent="1" target="5EuRPj-aI9CK-kgrltqV-24">
          <mxGeometry relative="1" as="geometry">
            <mxPoint x="420" y="140" as="sourcePoint" />
            <mxPoint x="490" y="230" as="targetPoint" />
          </mxGeometry>
        </mxCell>
        <mxCell id="MryDrE8TIwxOaf-oB4nf-1" value="Telefon" style="ellipse;whiteSpace=wrap;html=1;align=center;" vertex="1" parent="1">
          <mxGeometry x="140" y="250" width="100" height="40" as="geometry" />
        </mxCell>
        <mxCell id="MryDrE8TIwxOaf-oB4nf-2" value="Telefon" style="ellipse;whiteSpace=wrap;html=1;align=center;" vertex="1" parent="1">
          <mxGeometry x="210" y="30" width="100" height="40" as="geometry" />
        </mxCell>
        <mxCell id="MryDrE8TIwxOaf-oB4nf-3" value="" style="endArrow=none;html=1;rounded=0;exitX=0.75;exitY=1;exitDx=0;exitDy=0;entryX=0;entryY=0;entryDx=0;entryDy=0;" edge="1" parent="1" source="5EuRPj-aI9CK-kgrltqV-2" target="MryDrE8TIwxOaf-oB4nf-1">
          <mxGeometry relative="1" as="geometry">
            <mxPoint x="330" y="230" as="sourcePoint" />
            <mxPoint x="490" y="230" as="targetPoint" />
          </mxGeometry>
        </mxCell>
        <mxCell id="MryDrE8TIwxOaf-oB4nf-5" value="" style="endArrow=none;html=1;rounded=0;exitX=0.75;exitY=0;exitDx=0;exitDy=0;entryX=0;entryY=1;entryDx=0;entryDy=0;" edge="1" parent="1" source="5EuRPj-aI9CK-kgrltqV-1" target="MryDrE8TIwxOaf-oB4nf-2">
          <mxGeometry relative="1" as="geometry">
            <mxPoint x="330" y="230" as="sourcePoint" />
            <mxPoint x="490" y="230" as="targetPoint" />
          </mxGeometry>
        </mxCell>
      </root>
    </mxGraphModel>
  </diagram>
  <diagram id="ZMTXYaW6qK0jkHr7cnwB" name="Tabeller">
    <mxGraphModel dx="801" dy="433" grid="1" gridSize="10" guides="1" tooltips="1" connect="1" arrows="1" fold="1" page="1" pageScale="1" pageWidth="827" pageHeight="1169" math="0" shadow="0">
      <root>
        <mxCell id="VmGFISyWn0jLtp833blp-0" />
        <mxCell id="VmGFISyWn0jLtp833blp-1" parent="VmGFISyWn0jLtp833blp-0" />
        <mxCell id="VmGFISyWn0jLtp833blp-2" value="Â  Ledare" style="shape=table;startSize=30;container=1;collapsible=1;childLayout=tableLayout;fixedRows=1;rowLines=0;fontStyle=1;align=left;resizeLast=1;" vertex="1" parent="VmGFISyWn0jLtp833blp-1">
          <mxGeometry x="20" y="20" width="270" height="100" as="geometry" />
        </mxCell>
        <mxCell id="VmGFISyWn0jLtp833blp-3" value="" style="shape=partialRectangle;collapsible=0;dropTarget=0;pointerEvents=0;fillColor=none;top=0;left=0;bottom=1;right=0;points=[[0,0.5],[1,0.5]];portConstraint=eastwest;" vertex="1" parent="VmGFISyWn0jLtp833blp-2">
          <mxGeometry y="30" width="270" height="30" as="geometry" />
        </mxCell>
        <mxCell id="VmGFISyWn0jLtp833blp-4" value="Nummer" style="shape=partialRectangle;connectable=0;fillColor=none;top=0;left=0;bottom=0;right=0;fontStyle=5;overflow=hidden;" vertex="1" parent="VmGFISyWn0jLtp833blp-3">
          <mxGeometry width="90" height="30" as="geometry" />
        </mxCell>
        <mxCell id="VmGFISyWn0jLtp833blp-5" value="Namn" style="shape=partialRectangle;connectable=0;fillColor=none;top=0;left=0;bottom=0;right=0;align=center;spacingLeft=6;fontStyle=1;overflow=hidden;" vertex="1" parent="VmGFISyWn0jLtp833blp-3">
          <mxGeometry x="90" width="90" height="30" as="geometry" />
        </mxCell>
        <mxCell id="u0yEvK223hbuKT3gRnmy-0" value="Telefon" style="shape=partialRectangle;connectable=0;fillColor=none;top=0;left=0;bottom=0;right=0;align=center;spacingLeft=6;fontStyle=1;overflow=hidden;" vertex="1" parent="VmGFISyWn0jLtp833blp-3">
          <mxGeometry x="180" width="90" height="30" as="geometry" />
        </mxCell>
        <mxCell id="VmGFISyWn0jLtp833blp-6" style="shape=partialRectangle;collapsible=0;dropTarget=0;pointerEvents=0;fillColor=none;top=0;left=0;bottom=1;right=0;points=[[0,0.5],[1,0.5]];portConstraint=eastwest;" vertex="1" parent="VmGFISyWn0jLtp833blp-2">
          <mxGeometry y="60" width="270" height="30" as="geometry" />
        </mxCell>
        <mxCell id="VmGFISyWn0jLtp833blp-7" value="123" style="shape=partialRectangle;connectable=0;fillColor=none;top=0;left=0;bottom=0;right=0;fontStyle=0;overflow=hidden;" vertex="1" parent="VmGFISyWn0jLtp833blp-6">
          <mxGeometry width="90" height="30" as="geometry" />
        </mxCell>
        <mxCell id="VmGFISyWn0jLtp833blp-8" value="Tore Risch" style="shape=partialRectangle;connectable=0;fillColor=none;top=0;left=0;bottom=0;right=0;align=center;spacingLeft=6;fontStyle=0;overflow=hidden;" vertex="1" parent="VmGFISyWn0jLtp833blp-6">
          <mxGeometry x="90" width="90" height="30" as="geometry" />
        </mxCell>
        <mxCell id="u0yEvK223hbuKT3gRnmy-1" value="0532-11111" style="shape=partialRectangle;connectable=0;fillColor=none;top=0;left=0;bottom=0;right=0;align=center;spacingLeft=6;fontStyle=0;overflow=hidden;" vertex="1" parent="VmGFISyWn0jLtp833blp-6">
          <mxGeometry x="180" width="90" height="30" as="geometry" />
        </mxCell>
        <mxCell id="Lnz0drg3YyzbVLNblRNq-0" value="Â  Â Medlemmar" style="shape=table;startSize=30;container=1;collapsible=1;childLayout=tableLayout;fixedRows=1;rowLines=0;fontStyle=1;align=left;resizeLast=1;" vertex="1" parent="VmGFISyWn0jLtp833blp-1">
          <mxGeometry x="320" y="20" width="270" height="100" as="geometry" />
        </mxCell>
        <mxCell id="Lnz0drg3YyzbVLNblRNq-1" value="" style="shape=partialRectangle;collapsible=0;dropTarget=0;pointerEvents=0;fillColor=none;top=0;left=0;bottom=1;right=0;points=[[0,0.5],[1,0.5]];portConstraint=eastwest;" vertex="1" parent="Lnz0drg3YyzbVLNblRNq-0">
          <mxGeometry y="30" width="270" height="30" as="geometry" />
        </mxCell>
        <mxCell id="Lnz0drg3YyzbVLNblRNq-2" value="Nummer" style="shape=partialRectangle;connectable=0;fillColor=none;top=0;left=0;bottom=0;right=0;fontStyle=5;overflow=hidden;" vertex="1" parent="Lnz0drg3YyzbVLNblRNq-1">
          <mxGeometry width="90" height="30" as="geometry" />
        </mxCell>
        <mxCell id="Lnz0drg3YyzbVLNblRNq-3" value="Namn" style="shape=partialRectangle;connectable=0;fillColor=none;top=0;left=0;bottom=0;right=0;align=center;spacingLeft=6;fontStyle=1;overflow=hidden;" vertex="1" parent="Lnz0drg3YyzbVLNblRNq-1">
          <mxGeometry x="90" width="90" height="30" as="geometry" />
        </mxCell>
        <mxCell id="u0yEvK223hbuKT3gRnmy-2" value="Telefon" style="shape=partialRectangle;connectable=0;fillColor=none;top=0;left=0;bottom=0;right=0;align=center;spacingLeft=6;fontStyle=1;overflow=hidden;" vertex="1" parent="Lnz0drg3YyzbVLNblRNq-1">
          <mxGeometry x="180" width="90" height="30" as="geometry" />
        </mxCell>
        <mxCell id="Lnz0drg3YyzbVLNblRNq-4" style="shape=partialRectangle;collapsible=0;dropTarget=0;pointerEvents=0;fillColor=none;top=0;left=0;bottom=1;right=0;points=[[0,0.5],[1,0.5]];portConstraint=eastwest;" vertex="1" parent="Lnz0drg3YyzbVLNblRNq-0">
          <mxGeometry y="60" width="270" height="30" as="geometry" />
        </mxCell>
        <mxCell id="Lnz0drg3YyzbVLNblRNq-5" value="678" style="shape=partialRectangle;connectable=0;fillColor=none;top=0;left=0;bottom=0;right=0;fontStyle=0;overflow=hidden;" vertex="1" parent="Lnz0drg3YyzbVLNblRNq-4">
          <mxGeometry width="90" height="30" as="geometry" />
        </mxCell>
        <mxCell id="Lnz0drg3YyzbVLNblRNq-6" value="Pelle Ek" style="shape=partialRectangle;connectable=0;fillColor=none;top=0;left=0;bottom=0;right=0;align=center;spacingLeft=6;fontStyle=0;overflow=hidden;" vertex="1" parent="Lnz0drg3YyzbVLNblRNq-4">
          <mxGeometry x="90" width="90" height="30" as="geometry" />
        </mxCell>
        <mxCell id="u0yEvK223hbuKT3gRnmy-3" value="070-1112277" style="shape=partialRectangle;connectable=0;fillColor=none;top=0;left=0;bottom=0;right=0;align=center;spacingLeft=6;fontStyle=0;overflow=hidden;" vertex="1" parent="Lnz0drg3YyzbVLNblRNq-4">
          <mxGeometry x="180" width="90" height="30" as="geometry" />
        </mxCell>
        <mxCell id="u0yEvK223hbuKT3gRnmy-5" value="Â  Pass" style="shape=table;startSize=30;container=1;collapsible=1;childLayout=tableLayout;fixedRows=1;rowLines=0;fontStyle=1;align=left;resizeLast=1;" vertex="1" parent="VmGFISyWn0jLtp833blp-1">
          <mxGeometry x="20" y="150" width="480" height="100" as="geometry" />
        </mxCell>
        <mxCell id="u0yEvK223hbuKT3gRnmy-6" value="" style="shape=partialRectangle;collapsible=0;dropTarget=0;pointerEvents=0;fillColor=none;top=0;left=0;bottom=1;right=0;points=[[0,0.5],[1,0.5]];portConstraint=eastwest;" vertex="1" parent="u0yEvK223hbuKT3gRnmy-5">
          <mxGeometry y="30" width="480" height="30" as="geometry" />
        </mxCell>
        <mxCell id="u0yEvK223hbuKT3gRnmy-7" value="Typ" style="shape=partialRectangle;connectable=0;fillColor=none;top=0;left=0;bottom=0;right=0;fontStyle=5;overflow=hidden;" vertex="1" parent="u0yEvK223hbuKT3gRnmy-6">
          <mxGeometry width="80" height="30" as="geometry" />
        </mxCell>
        <mxCell id="u0yEvK223hbuKT3gRnmy-8" value="Datum" style="shape=partialRectangle;connectable=0;fillColor=none;top=0;left=0;bottom=0;right=0;align=center;spacingLeft=6;fontStyle=5;overflow=hidden;" vertex="1" parent="u0yEvK223hbuKT3gRnmy-6">
          <mxGeometry x="80" width="80" height="30" as="geometry" />
        </mxCell>
        <mxCell id="u0yEvK223hbuKT3gRnmy-9" value="Tid" style="shape=partialRectangle;connectable=0;fillColor=none;top=0;left=0;bottom=0;right=0;align=center;spacingLeft=6;fontStyle=5;overflow=hidden;" vertex="1" parent="u0yEvK223hbuKT3gRnmy-6">
          <mxGeometry x="160" width="70" height="30" as="geometry" />
        </mxCell>
        <mxCell id="v22qekg5F3GSZzPRaKMO-13" value="Lokal" style="shape=partialRectangle;connectable=0;fillColor=none;top=0;left=0;bottom=0;right=0;align=center;spacingLeft=6;fontStyle=1;overflow=hidden;" vertex="1" parent="u0yEvK223hbuKT3gRnmy-6">
          <mxGeometry x="230" width="70" height="30" as="geometry" />
        </mxCell>
        <mxCell id="u0yEvK223hbuKT3gRnmy-10" value="Max_deltagare" style="shape=partialRectangle;connectable=0;fillColor=none;top=0;left=0;bottom=0;right=0;align=center;spacingLeft=6;fontStyle=1;overflow=hidden;" vertex="1" parent="u0yEvK223hbuKT3gRnmy-6">
          <mxGeometry x="300" width="100" height="30" as="geometry" />
        </mxCell>
        <mxCell id="u0yEvK223hbuKT3gRnmy-18" value="Ledare" style="shape=partialRectangle;connectable=0;fillColor=none;top=0;left=0;bottom=0;right=0;align=center;spacingLeft=6;fontStyle=1;overflow=hidden;" vertex="1" parent="u0yEvK223hbuKT3gRnmy-6">
          <mxGeometry x="400" width="80" height="30" as="geometry" />
        </mxCell>
        <mxCell id="u0yEvK223hbuKT3gRnmy-12" style="shape=partialRectangle;collapsible=0;dropTarget=0;pointerEvents=0;fillColor=none;top=0;left=0;bottom=1;right=0;points=[[0,0.5],[1,0.5]];portConstraint=eastwest;" vertex="1" parent="u0yEvK223hbuKT3gRnmy-5">
          <mxGeometry y="60" width="480" height="30" as="geometry" />
        </mxCell>
        <mxCell id="u0yEvK223hbuKT3gRnmy-13" value="Zumba" style="shape=partialRectangle;connectable=0;fillColor=none;top=0;left=0;bottom=0;right=0;fontStyle=0;overflow=hidden;" vertex="1" parent="u0yEvK223hbuKT3gRnmy-12">
          <mxGeometry width="80" height="30" as="geometry" />
        </mxCell>
        <mxCell id="u0yEvK223hbuKT3gRnmy-14" value="2021-11-14" style="shape=partialRectangle;connectable=0;fillColor=none;top=0;left=0;bottom=0;right=0;align=center;spacingLeft=6;fontStyle=0;overflow=hidden;" vertex="1" parent="u0yEvK223hbuKT3gRnmy-12">
          <mxGeometry x="80" width="80" height="30" as="geometry" />
        </mxCell>
        <mxCell id="u0yEvK223hbuKT3gRnmy-15" value="17.00" style="shape=partialRectangle;connectable=0;fillColor=none;top=0;left=0;bottom=0;right=0;align=center;spacingLeft=6;fontStyle=0;overflow=hidden;" vertex="1" parent="u0yEvK223hbuKT3gRnmy-12">
          <mxGeometry x="160" width="70" height="30" as="geometry" />
        </mxCell>
        <mxCell id="v22qekg5F3GSZzPRaKMO-14" value="A" style="shape=partialRectangle;connectable=0;fillColor=none;top=0;left=0;bottom=0;right=0;align=center;spacingLeft=6;fontStyle=0;overflow=hidden;" vertex="1" parent="u0yEvK223hbuKT3gRnmy-12">
          <mxGeometry x="230" width="70" height="30" as="geometry" />
        </mxCell>
        <mxCell id="u0yEvK223hbuKT3gRnmy-16" value="123" style="shape=partialRectangle;connectable=0;fillColor=none;top=0;left=0;bottom=0;right=0;align=center;spacingLeft=6;fontStyle=0;overflow=hidden;" vertex="1" parent="u0yEvK223hbuKT3gRnmy-12">
          <mxGeometry x="300" width="100" height="30" as="geometry" />
        </mxCell>
        <mxCell id="u0yEvK223hbuKT3gRnmy-19" value="123" style="shape=partialRectangle;connectable=0;fillColor=none;top=0;left=0;bottom=0;right=0;align=center;spacingLeft=6;fontStyle=0;overflow=hidden;" vertex="1" parent="u0yEvK223hbuKT3gRnmy-12">
          <mxGeometry x="400" width="80" height="30" as="geometry" />
        </mxCell>
        <mxCell id="v22qekg5F3GSZzPRaKMO-0" value="Â  Deltar" style="shape=table;startSize=30;container=1;collapsible=1;childLayout=tableLayout;fixedRows=1;rowLines=0;fontStyle=1;align=left;resizeLast=1;" vertex="1" parent="VmGFISyWn0jLtp833blp-1">
          <mxGeometry x="20" y="280" width="330" height="100" as="geometry" />
        </mxCell>
        <mxCell id="v22qekg5F3GSZzPRaKMO-1" value="" style="shape=partialRectangle;collapsible=0;dropTarget=0;pointerEvents=0;fillColor=none;top=0;left=0;bottom=1;right=0;points=[[0,0.5],[1,0.5]];portConstraint=eastwest;" vertex="1" parent="v22qekg5F3GSZzPRaKMO-0">
          <mxGeometry y="30" width="330" height="30" as="geometry" />
        </mxCell>
        <mxCell id="v22qekg5F3GSZzPRaKMO-2" value="Typ" style="shape=partialRectangle;connectable=0;fillColor=none;top=0;left=0;bottom=0;right=0;fontStyle=5;overflow=hidden;" vertex="1" parent="v22qekg5F3GSZzPRaKMO-1">
          <mxGeometry width="80" height="30" as="geometry" />
        </mxCell>
        <mxCell id="v22qekg5F3GSZzPRaKMO-3" value="Datum" style="shape=partialRectangle;connectable=0;fillColor=none;top=0;left=0;bottom=0;right=0;align=center;spacingLeft=6;fontStyle=5;overflow=hidden;" vertex="1" parent="v22qekg5F3GSZzPRaKMO-1">
          <mxGeometry x="80" width="80" height="30" as="geometry" />
        </mxCell>
        <mxCell id="v22qekg5F3GSZzPRaKMO-4" value="Tid" style="shape=partialRectangle;connectable=0;fillColor=none;top=0;left=0;bottom=0;right=0;align=center;spacingLeft=6;fontStyle=5;overflow=hidden;" vertex="1" parent="v22qekg5F3GSZzPRaKMO-1">
          <mxGeometry x="160" width="70" height="30" as="geometry" />
        </mxCell>
        <mxCell id="v22qekg5F3GSZzPRaKMO-5" value="Medlem" style="shape=partialRectangle;connectable=0;fillColor=none;top=0;left=0;bottom=0;right=0;align=center;spacingLeft=6;fontStyle=5;overflow=hidden;" vertex="1" parent="v22qekg5F3GSZzPRaKMO-1">
          <mxGeometry x="230" width="100" height="30" as="geometry" />
        </mxCell>
        <mxCell id="v22qekg5F3GSZzPRaKMO-7" style="shape=partialRectangle;collapsible=0;dropTarget=0;pointerEvents=0;fillColor=none;top=0;left=0;bottom=1;right=0;points=[[0,0.5],[1,0.5]];portConstraint=eastwest;" vertex="1" parent="v22qekg5F3GSZzPRaKMO-0">
          <mxGeometry y="60" width="330" height="30" as="geometry" />
        </mxCell>
        <mxCell id="v22qekg5F3GSZzPRaKMO-8" value="Zumba" style="shape=partialRectangle;connectable=0;fillColor=none;top=0;left=0;bottom=0;right=0;fontStyle=0;overflow=hidden;" vertex="1" parent="v22qekg5F3GSZzPRaKMO-7">
          <mxGeometry width="80" height="30" as="geometry" />
        </mxCell>
        <mxCell id="v22qekg5F3GSZzPRaKMO-9" value="2021-11-14" style="shape=partialRectangle;connectable=0;fillColor=none;top=0;left=0;bottom=0;right=0;align=center;spacingLeft=6;fontStyle=0;overflow=hidden;" vertex="1" parent="v22qekg5F3GSZzPRaKMO-7">
          <mxGeometry x="80" width="80" height="30" as="geometry" />
        </mxCell>
        <mxCell id="v22qekg5F3GSZzPRaKMO-10" value="17.00" style="shape=partialRectangle;connectable=0;fillColor=none;top=0;left=0;bottom=0;right=0;align=center;spacingLeft=6;fontStyle=0;overflow=hidden;" vertex="1" parent="v22qekg5F3GSZzPRaKMO-7">
          <mxGeometry x="160" width="70" height="30" as="geometry" />
        </mxCell>
        <mxCell id="v22qekg5F3GSZzPRaKMO-11" value="678" style="shape=partialRectangle;connectable=0;fillColor=none;top=0;left=0;bottom=0;right=0;align=center;spacingLeft=6;fontStyle=0;overflow=hidden;" vertex="1" parent="v22qekg5F3GSZzPRaKMO-7">
          <mxGeometry x="230" width="100" height="30" as="geometry" />
        </mxCell>
        <mxCell id="v22qekg5F3GSZzPRaKMO-15" value="Â  Lokaler" style="shape=table;startSize=30;container=1;collapsible=1;childLayout=tableLayout;fixedRows=1;rowLines=0;fontStyle=1;align=left;resizeLast=1;" vertex="1" parent="VmGFISyWn0jLtp833blp-1">
          <mxGeometry x="380" y="280" width="150" height="100" as="geometry" />
        </mxCell>
        <mxCell id="v22qekg5F3GSZzPRaKMO-16" value="" style="shape=partialRectangle;collapsible=0;dropTarget=0;pointerEvents=0;fillColor=none;top=0;left=0;bottom=1;right=0;points=[[0,0.5],[1,0.5]];portConstraint=eastwest;" vertex="1" parent="v22qekg5F3GSZzPRaKMO-15">
          <mxGeometry y="30" width="150" height="30" as="geometry" />
        </mxCell>
        <mxCell id="v22qekg5F3GSZzPRaKMO-17" value="Id" style="shape=partialRectangle;connectable=0;fillColor=none;top=0;left=0;bottom=0;right=0;fontStyle=5;overflow=hidden;" vertex="1" parent="v22qekg5F3GSZzPRaKMO-16">
          <mxGeometry width="50" height="30" as="geometry" />
        </mxCell>
        <mxCell id="v22qekg5F3GSZzPRaKMO-18" value="Namn" style="shape=partialRectangle;connectable=0;fillColor=none;top=0;left=0;bottom=0;right=0;align=center;spacingLeft=6;fontStyle=1;overflow=hidden;" vertex="1" parent="v22qekg5F3GSZzPRaKMO-16">
          <mxGeometry x="50" width="100" height="30" as="geometry" />
        </mxCell>
        <mxCell id="v22qekg5F3GSZzPRaKMO-20" style="shape=partialRectangle;collapsible=0;dropTarget=0;pointerEvents=0;fillColor=none;top=0;left=0;bottom=1;right=0;points=[[0,0.5],[1,0.5]];portConstraint=eastwest;" vertex="1" parent="v22qekg5F3GSZzPRaKMO-15">
          <mxGeometry y="60" width="150" height="30" as="geometry" />
        </mxCell>
        <mxCell id="v22qekg5F3GSZzPRaKMO-21" value="A" style="shape=partialRectangle;connectable=0;fillColor=none;top=0;left=0;bottom=0;right=0;fontStyle=0;overflow=hidden;" vertex="1" parent="v22qekg5F3GSZzPRaKMO-20">
          <mxGeometry width="50" height="30" as="geometry" />
        </mxCell>
        <mxCell id="v22qekg5F3GSZzPRaKMO-22" value="Stora salen" style="shape=partialRectangle;connectable=0;fillColor=none;top=0;left=0;bottom=0;right=0;align=center;spacingLeft=6;fontStyle=0;overflow=hidden;" vertex="1" parent="v22qekg5F3GSZzPRaKMO-20">
          <mxGeometry x="50" width="100" height="30" as="geometry" />
        </mxCell>
      </root>
    </mxGraphModel>
  </diagram>
</mxfile>
